<svg width="48" height="48" viewBox="0 0 48 48" fill="none" xmlns="http://www.w3.org/2000/svg">
<path d="M47.9999 24.7196C38.2729 24.841 32.805 25.5062 29.1555 29.1555C25.5061 32.8049 24.841 38.273 24.7197 48C37.4085 47.6265 47.6264 37.4084 47.9999 24.7196Z" fill="white"/>
<path d="M23.2802 48C23.1589 38.273 22.4938 32.8049 18.8444 29.1556C15.1949 25.5062 9.727 24.841 0 24.7196C0.373517 37.4084 10.5915 47.6265 23.2802 48Z" fill="white"/>
<path d="M47.9999 23.2803C47.6264 10.5916 37.4085 0.373517 24.7197 0C24.841 9.72691 25.5061 15.1951 29.1555 18.8444C32.805 22.4938 38.2729 23.159 47.9999 23.2803Z" fill="white"/>
<path d="M23.2802 0C10.5915 0.373517 0.373517 10.5916 0 23.2803C9.727 23.159 15.1949 22.4938 18.8444 18.8444C22.4938 15.1951 23.1589 9.72696 23.2802 0Z" fill="white"/>
</svg>
