<svg width="48" height="48" viewBox="0 0 48 48" fill="none" xmlns="http://www.w3.org/2000/svg">
<path fill-rule="evenodd" clip-rule="evenodd" d="M23.9999 48C37.2547 48 47.9999 37.2548 47.9999 24C47.9999 10.7452 37.2547 0 23.9999 0C10.745 0 -0.00012207 10.7452 -0.00012207 24C-0.00012207 37.2548 10.745 48 23.9999 48ZM24.8392 17.7052C22.5011 18.6844 17.845 20.7028 10.8508 23.7402C9.73178 24.1998 9.13228 24.6395 9.07233 25.0791C8.98383 25.8225 9.91431 26.1112 11.1695 26.5008C11.3315 26.551 11.4989 26.603 11.6702 26.6578C12.9091 27.0575 14.5478 27.5171 15.407 27.5371C16.1864 27.557 17.0457 27.2373 18.0049 26.5779C24.5394 22.1615 27.8966 19.9234 28.1165 19.8834C28.2763 19.8435 28.4762 19.8035 28.616 19.9234C28.7559 20.0433 28.7559 20.2831 28.7359 20.3431C28.6406 20.7403 24.7423 24.3594 22.9682 26.0063C22.5112 26.4306 22.1951 26.724 22.1215 26.7977C21.934 26.9906 21.7432 27.1733 21.5597 27.3489C20.4126 28.4468 19.5519 29.2708 21.6019 30.6145C22.5339 31.2298 23.2856 31.7426 24.0258 32.2477C24.9204 32.858 25.7983 33.457 26.9574 34.2115C27.2305 34.3908 27.4919 34.5768 27.747 34.7583C28.7425 35.4664 29.6407 36.1054 30.7543 36.01C31.3937 35.95 32.0532 35.3505 32.3929 33.552C33.1922 29.3156 34.7509 20.1033 35.1106 16.3064C35.1506 15.9867 35.1106 15.567 35.0707 15.3672C35.0307 15.1674 34.9707 14.9076 34.7309 14.7077C34.4312 14.4679 33.9916 14.428 33.7917 14.428C32.8925 14.448 31.4936 14.9276 24.8392 17.7052Z" fill="white"/>
</svg>
