<svg width="48" height="48" viewBox="0 0 48 48" fill="none" xmlns="http://www.w3.org/2000/svg">
<path fill-rule="evenodd" clip-rule="evenodd" d="M23.9999 48C37.2547 48 47.9999 37.2548 47.9999 24C47.9999 10.7452 37.2547 0 23.9999 0C10.745 0 -0.00012207 10.7452 -0.00012207 24C-0.00012207 37.2548 10.745 48 23.9999 48ZM24.9398 34.58C13.9998 34.58 7.75987 27.0801 7.4999 14.6001H12.9799C13.1599 23.7601 17.1998 27.6401 20.3998 28.44V14.6001H25.5599V22.5C28.7199 22.16 32.0396 18.5601 33.1595 14.6001H38.3197C37.4597 19.4801 33.8597 23.0801 31.2997 24.56C33.8597 25.76 37.9599 28.9001 39.5199 34.58H33.8397C32.6197 30.7801 29.5799 27.84 25.5599 27.44V34.58H24.9398Z" fill="white"/>
</svg>
