<?xml version="1.0" encoding="utf-8"?>
<svg fill="#b280e5" width="44px" height="44px" viewBox="0 0 44 44" xmlns="http://www.w3.org/2000/svg">
    <circle cx="22" cy="22" r="22" fill="#6600cc"/>
    <path d="M 16.8827 26.8360 C 11.0702 21.0469 7.3671 13.6640 11.7499 9.2813 C 12.0077 9.0234 12.2890 8.7656 12.5468 8.5078 C 13.8827 7.2422 15.1718 7.3125 16.3202 8.9297 L 19.3671 13.2656 C 20.3983 14.7656 20.1405 15.6094 19.0390 16.7813 L 18.0780 17.8360 C 17.7265 18.1640 17.8671 18.6094 18.0312 18.8906 C 18.4765 19.7344 19.7421 21.2344 21.1014 22.5938 C 22.5077 24.0000 23.9374 25.1953 24.8280 25.6875 C 25.1562 25.875 25.6249 25.9219 25.9296 25.6406 L 26.9374 24.6797 C 28.0624 23.5781 28.9765 23.2969 30.4296 24.3281 C 32.4452 25.7578 33.6640 26.6016 34.8593 27.4219 C 36.3358 28.5000 36.6874 29.8360 35.1874 31.1953 C 34.9296 31.4531 34.6952 31.7344 34.4374 31.9922 C 30.0546 36.3516 22.6952 32.6484 16.8827 26.8360 Z" fill="#FFFFFF"/>
</svg>