<svg width="56" height="56" viewBox="0 0 56 56" fill="none" xmlns="http://www.w3.org/2000/svg">
<circle cx="28" cy="28" r="28" fill="white"/>
<path d="M33.8333 28.5832C34.1555 28.5832 34.4167 28.322 34.4167 27.9999C34.4167 27.6777 34.1555 27.4165 33.8333 27.4165C33.5112 27.4165 33.25 27.6777 33.25 27.9999C33.25 28.322 33.5112 28.5832 33.8333 28.5832Z" fill="black"/>
<path d="M28 28.5832C28.3221 28.5832 28.5833 28.322 28.5833 27.9999C28.5833 27.6777 28.3221 27.4165 28 27.4165C27.6779 27.4165 27.4167 27.6777 27.4167 27.9999C27.4167 28.322 27.6779 28.5832 28 28.5832Z" fill="black"/>
<path d="M22.1667 28.5832C22.4888 28.5832 22.75 28.322 22.75 27.9999C22.75 27.6777 22.4888 27.4165 22.1667 27.4165C21.8445 27.4165 21.5833 27.6777 21.5833 27.9999C21.5833 28.322 21.8445 28.5832 22.1667 28.5832Z" fill="black"/>
<path d="M33.8333 28.5832C34.1555 28.5832 34.4167 28.322 34.4167 27.9999C34.4167 27.6777 34.1555 27.4165 33.8333 27.4165C33.5112 27.4165 33.25 27.6777 33.25 27.9999C33.25 28.322 33.5112 28.5832 33.8333 28.5832Z" stroke="black" stroke-width="1.3125" stroke-linecap="round" stroke-linejoin="round"/>
<path d="M28 28.5832C28.3221 28.5832 28.5833 28.322 28.5833 27.9999C28.5833 27.6777 28.3221 27.4165 28 27.4165C27.6779 27.4165 27.4167 27.6777 27.4167 27.9999C27.4167 28.322 27.6779 28.5832 28 28.5832Z" stroke="black" stroke-width="1.3125" stroke-linecap="round" stroke-linejoin="round"/>
<path d="M22.1667 28.5832C22.4888 28.5832 22.75 28.322 22.75 27.9999C22.75 27.6777 22.4888 27.4165 22.1667 27.4165C21.8445 27.4165 21.5833 27.6777 21.5833 27.9999C21.5833 28.322 21.8445 28.5832 22.1667 28.5832Z" stroke="black" stroke-width="1.3125" stroke-linecap="round" stroke-linejoin="round"/>
<path d="M28 39.6665C34.4433 39.6665 39.6667 34.4431 39.6667 27.9999C39.6667 21.5565 34.4433 16.3332 28 16.3332C21.5567 16.3332 16.3333 21.5565 16.3333 27.9999C16.3333 30.1248 16.9015 32.1171 17.8941 33.8332L16.9167 39.0832L22.1667 38.1058C23.8827 39.0984 25.875 39.6665 28 39.6665Z" stroke="black" stroke-width="1.3125" stroke-linecap="round" stroke-linejoin="round"/>
</svg>
