<?xml version="1.0" encoding="UTF-8"?>
<svg xmlns="http://www.w3.org/2000/svg" xmlns:xlink="http://www.w3.org/1999/xlink" width="210px" height="210px" viewBox="0 0 210 210" version="1.1">
<g id="surface1">
<path style=" stroke:none;fill-rule:nonzero;fill:rgb(100%,85.09804%,50.196081%);fill-opacity:1;" d="M 88.03125 0.773438 C 80 0.773438 73.488281 7.285156 73.488281 15.316406 L 73.488281 28.925781 L 63.863281 19.300781 C 58.183594 13.621094 48.976562 13.621094 43.296875 19.300781 L 19.300781 43.296875 C 13.621094 48.976562 13.621094 58.183594 19.300781 63.863281 L 28.925781 73.488281 L 15.316406 73.488281 C 7.285156 73.488281 0.773438 80 0.773438 88.03125 L 0.773438 121.96875 C 0.773438 130 7.285156 136.511719 15.316406 136.511719 L 28.925781 136.511719 L 19.300781 146.136719 C 13.621094 151.816406 13.621094 161.023438 19.300781 166.703125 L 43.296875 190.699219 C 48.976562 196.378906 58.183594 196.378906 63.863281 190.699219 L 73.488281 181.074219 L 73.488281 194.683594 C 73.488281 202.71875 80 209.226562 88.03125 209.226562 L 121.964844 209.226562 C 129.996094 209.226562 136.507812 202.71875 136.507812 194.683594 L 136.507812 181.074219 L 146.132812 190.699219 C 151.8125 196.378906 161.019531 196.378906 166.703125 190.699219 L 190.695312 166.703125 C 196.375 161.023438 196.375 151.8125 190.695312 146.136719 L 181.070312 136.511719 L 194.683594 136.511719 C 202.714844 136.511719 209.226562 130 209.226562 121.96875 L 209.226562 88.03125 C 209.226562 80 202.71875 73.488281 194.683594 73.488281 L 181.074219 73.488281 L 190.695312 63.863281 C 196.375 58.183594 196.375 48.976562 190.695312 43.296875 L 166.703125 19.300781 C 161.023438 13.621094 151.8125 13.621094 146.132812 19.300781 L 136.507812 28.925781 L 136.507812 15.316406 C 136.507812 7.285156 129.996094 0.773438 121.964844 0.773438 Z M 88.03125 0.773438 "/>
</g>
</svg>
