<?xml version="1.0" encoding="UTF-8"?>
<svg xmlns="http://www.w3.org/2000/svg" xmlns:xlink="http://www.w3.org/1999/xlink" width="210px" height="210px" viewBox="0 0 210 210" version="1.1">
<g id="surface1">
<path style=" stroke:none;fill-rule:evenodd;fill:rgb(100%,69.803923%,50.196081%);fill-opacity:1;" d="M 105 187.960938 C 94.195312 200.957031 77.90625 209.226562 59.683594 209.226562 C 27.148438 209.226562 0.773438 182.851562 0.773438 150.316406 C 0.773438 132.09375 9.042969 115.804688 22.039062 105 C 9.042969 94.195312 0.773438 77.90625 0.773438 59.683594 C 0.773438 27.148438 27.148438 0.773438 59.683594 0.773438 C 77.90625 0.773438 94.195312 9.042969 105 22.039062 C 115.804688 9.042969 132.09375 0.773438 150.316406 0.773438 C 182.851562 0.773438 209.226562 27.148438 209.226562 59.683594 C 209.226562 77.90625 200.957031 94.195312 187.960938 105 C 200.957031 115.804688 209.226562 132.09375 209.226562 150.316406 C 209.226562 182.851562 182.851562 209.226562 150.316406 209.226562 C 132.09375 209.226562 115.804688 200.957031 105 187.960938 Z M 105 187.960938 "/>
</g>
</svg>
