<?xml version="1.0" encoding="UTF-8"?>
<svg xmlns="http://www.w3.org/2000/svg" xmlns:xlink="http://www.w3.org/1999/xlink" width="210px" height="210px" viewBox="0 0 210 210" version="1.1">
<g id="surface1">
<path style=" stroke:none;fill-rule:nonzero;fill:rgb(60.000002%,89.803922%,69.803923%);fill-opacity:1;" d="M 209.925781 41.371094 C 209.925781 54.1875 195.023438 65.632812 171.652344 73.183594 C 195.023438 80.738281 209.925781 92.183594 209.925781 105 C 209.925781 117.816406 195.023438 129.265625 171.652344 136.816406 C 195.023438 144.367188 209.925781 155.8125 209.925781 168.628906 C 209.925781 191.367188 163.003906 209.800781 105.125 209.800781 C 47.246094 209.800781 0.324219 191.367188 0.324219 168.628906 C 0.324219 155.8125 15.226562 144.367188 38.597656 136.816406 C 15.226562 129.265625 0.324219 117.816406 0.324219 105 C 0.324219 92.183594 15.226562 80.738281 38.597656 73.183594 C 15.226562 65.632812 0.324219 54.1875 0.324219 41.371094 C 0.324219 18.632812 47.246094 0.199219 105.125 0.199219 C 163.003906 0.199219 209.925781 18.632812 209.925781 41.371094 Z M 209.925781 41.371094 "/>
</g>
</svg>
