<?xml version="1.0" encoding="UTF-8"?>
<svg xmlns="http://www.w3.org/2000/svg" xmlns:xlink="http://www.w3.org/1999/xlink" width="50px" height="30px" viewBox="0 0 30 30" version="1.1">
<g id="surface1">
<path style=" stroke:none;fill-rule:nonzero;fill:rgb(100%,100%,100%);fill-opacity:1;" d="M 16 12.996094 C 14.34375 12.996094 13 14.339844 13 15.996094 C 13 17.65625 14.34375 18.996094 16 18.996094 C 17.65625 18.996094 19 17.65625 19 15.996094 C 19 14.339844 17.65625 12.996094 16 12.996094 M 17.5 16.496094 C 17.222656 16.496094 17 16.273438 17 15.996094 C 17 15.445312 16.550781 14.996094 16 14.996094 C 15.722656 14.996094 15.5 14.773438 15.5 14.496094 C 15.5 14.21875 15.722656 13.996094 16 13.996094 C 17.105469 13.996094 18 14.890625 18 15.996094 C 18 16.273438 17.777344 16.496094 17.5 16.496094 "/>
<path style=" stroke:none;fill-rule:nonzero;fill:rgb(100%,100%,100%);fill-opacity:1;" d="M 16 8.996094 C 12.132812 8.996094 9 12.132812 9 15.996094 C 9 19.863281 12.132812 22.996094 16 22.996094 C 19.867188 22.996094 23 19.863281 23 15.996094 C 23 12.132812 19.867188 8.996094 16 8.996094 M 16 19.996094 C 13.789062 19.996094 12 18.207031 12 15.996094 C 12 13.789062 13.789062 11.996094 16 11.996094 C 18.210938 11.996094 20 13.789062 20 15.996094 C 20 18.207031 18.210938 19.996094 16 19.996094 "/>
<path style=" stroke:none;fill-rule:nonzero;fill:rgb(100%,100%,100%);fill-opacity:1;" d="M 31.96875 15.816406 C 31.960938 15.796875 31.839844 15.492188 31.597656 14.992188 C 30.296875 12.308594 25.511719 3.996094 16 3.996094 C 4.714844 3.996094 0.078125 15.699219 0.03125 15.816406 C -0.0117188 15.933594 -0.0117188 16.058594 0.03125 16.175781 C 0.078125 16.292969 4.714844 27.996094 16 27.996094 C 25.503906 27.996094 30.292969 19.695312 31.59375 17.003906 C 31.835938 16.5 31.960938 16.195312 31.964844 16.175781 C 32.011719 16.058594 32.011719 15.933594 31.96875 15.816406 M 16 23.996094 C 11.582031 23.996094 8 20.417969 8 15.996094 C 8 11.578125 11.582031 7.996094 16 7.996094 C 20.417969 7.996094 24 11.578125 24 15.996094 C 24 20.417969 20.417969 23.996094 16 23.996094 "/>
</g>
</svg>
