<svg width="311" height="42" viewBox="0 0 311 42" fill="none" xmlns="http://www.w3.org/2000/svg">
<path d="M198.652 37.6981C213.778 43.4829 235.558 42.7193 256.326 39.5875C277.185 36.4428 297.421 30.8521 309.705 26.6462L308.46 23.0356C296.357 27.1768 276.354 32.7028 255.755 35.8087C235.065 38.9275 214.154 39.5228 200.027 34.1263L198.652 37.6981ZM203.309 2.32944C202.259 0.595301 200.455 0 198.717 0C197.018 0 195.15 0.58236 193.36 1.44943C189.754 3.19651 185.901 6.44478 183.41 10.4566C180.907 14.4943 179.674 19.5285 181.854 24.5885C184.007 29.5839 189.274 34.1263 198.652 37.6981L200.027 34.1263C191.103 30.7227 186.952 26.7109 185.382 23.0744C183.838 19.5026 184.604 15.8014 186.679 12.4625C188.768 9.09776 192.063 6.32831 195.046 4.87888C196.551 4.15417 197.835 3.81769 198.756 3.81769C199.638 3.81769 199.911 4.08946 200.04 4.28358L203.322 2.32944H203.309ZM185.071 24.8344C191.012 22.0003 196.46 18.3896 200.014 14.6366C201.792 12.7602 203.18 10.7542 203.867 8.68364C204.568 6.5742 204.516 4.34829 203.309 2.32944L200.027 4.28358C200.559 5.17653 200.663 6.1989 200.235 7.48009C199.794 8.81305 198.795 10.3531 197.225 12.0096C194.099 15.3096 189.105 18.6873 183.423 21.392L185.071 24.8344ZM87.4438 30.6192C91.491 36.3393 98.1197 39.5099 105.864 40.9334C113.621 42.3699 122.74 42.124 132.132 40.8299C150.929 38.2416 171.269 31.4086 185.058 24.8344L183.41 21.392C169.919 27.8239 149.956 34.5275 131.613 37.051C122.442 38.3193 113.777 38.5134 106.564 37.1934C99.352 35.8604 93.826 33.0263 90.57 28.4321L87.4438 30.6321V30.6192ZM122.235 1.90238C120.976 0.750597 119.173 0.271768 117.383 0.129413C115.528 -0.0258827 113.388 0.129413 111.131 0.543536C106.616 1.35884 101.428 3.19651 96.8484 5.81066C92.3082 8.41187 88.1442 11.906 86.0168 16.1378C83.7986 20.5379 83.8635 25.5462 87.4567 30.6321L90.583 28.4321C87.794 24.485 87.8589 20.9779 89.4285 17.859C91.0889 14.5719 94.5135 11.5566 98.7553 9.13658C102.958 6.72949 107.745 5.04712 111.818 4.30946C113.855 3.94711 115.645 3.83063 117.059 3.94711C118.525 4.07652 119.329 4.42594 119.666 4.73653L122.248 1.91532L122.235 1.90238ZM76.703 31.3698C99.7023 25.5462 112.791 20.3826 119.329 15.8014C122.585 13.5237 124.582 11.1295 125.011 8.54128C125.452 5.8236 124.077 3.58475 122.235 1.91532L119.653 4.73653C121.015 5.9789 121.378 7.0142 121.236 7.93304C121.067 8.98129 120.107 10.599 117.137 12.6825C111.221 16.8237 98.7553 21.8579 75.769 27.6815L76.7159 31.3827L76.703 31.3698ZM0.661365 30.9557C3.9303 33.7898 11.5319 36.7404 23.8033 37.6075C36.1786 38.4746 53.561 37.2322 76.7159 31.3698L75.769 27.6686C52.9254 33.4533 35.9581 34.631 24.0757 33.8028C12.0897 32.9616 5.51288 30.1015 3.17792 28.0827L0.674337 30.9686L0.661365 30.9557ZM309.705 26.6591C310.704 26.3227 311.236 25.2356 310.899 24.2391C310.561 23.2426 309.472 22.712 308.473 23.0485L309.718 26.6591H309.705ZM3.16495 28.0698C2.36069 27.3839 1.1543 27.4615 0.466786 28.2639C-0.220728 29.0662 -0.142896 30.2698 0.661365 30.9557L3.16495 28.0698Z" fill="#6600CC"/>
</svg>
