<svg width="176" height="164" viewBox="0 0 176 164" fill="none" xmlns="http://www.w3.org/2000/svg">
<path d="M28.4294 59.8304L56.1125 74.9118M117.935 130.952L99.6782 109.826M63.3825 163L74.997 115.161M129.815 50.2373L104.182 70.6101M47.9874 1L71.0458 61.484M175 65.5723L109.405 81.7838M96.6918 155.376L87.4799 115.153M1 89.8402L52.9683 89.1032M96.7035 19.5085L87.7355 60.1117M39.5363 120.161L58.9529 105.577M151.55 114.818L108.241 98.688M104.182 70.6101C106.608 73.7732 108.43 77.5307 109.405 81.7838M104.182 70.6101C100.053 65.2274 94.1732 61.5659 87.7355 60.1117M109.405 81.7838C109.721 83.1627 109.948 84.5938 110.078 86.0736C110.482 90.6808 109.783 94.9304 108.241 98.688M108.241 98.688C104.705 107.303 96.7391 113.331 87.4799 115.153M87.4799 115.153C85.6813 115.507 83.834 115.703 81.9608 115.727C79.5141 115.759 77.1886 115.568 74.997 115.161M74.997 115.161C68.2614 113.91 62.7909 110.628 58.9529 105.577M58.9529 105.577C56.0155 101.71 54.0344 96.8078 53.1744 90.986C53.0813 90.3556 53.0129 89.7278 52.9683 89.1032M52.9683 89.1032C52.6058 84.032 53.8118 79.175 56.1125 74.9118M56.1125 74.9118C59.3565 68.9005 64.777 64.0697 71.0458 61.484M71.0458 61.484C73.5975 60.4315 76.2897 59.7509 79.0329 59.5141C81.974 59.2602 84.9086 59.4731 87.7355 60.1117" stroke="#FEB200" stroke-width="2" stroke-linecap="round" stroke-linejoin="round"/>
</svg>
