<svg width="182" height="38" viewBox="0 0 182 38" fill="none" xmlns="http://www.w3.org/2000/svg">
<path fill-rule="evenodd" clip-rule="evenodd" d="M37.1297 14.6247C37.9701 13.1803 38.3903 11.5424 38.3903 9.7111C38.3903 7.87979 37.9701 6.24193 37.1297 4.79752C36.2893 3.32731 35.1398 2.16662 33.6814 1.31545C32.2478 0.438483 30.5135 0 28.6843 0C26.8551 0 25.1208 0.438483 23.6871 1.31545C22.2287 2.16662 21.0793 3.32731 20.2389 4.79752C19.3984 6.24193 18.9782 7.87979 18.9782 9.7111C18.9782 11.5424 19.3984 13.1803 20.2389 14.6247C21.0793 16.0949 22.2287 17.2556 23.6871 18.1068C25.1208 18.9837 26.8551 19.4222 28.6843 19.4222C30.5135 19.4222 32.2478 18.9837 33.6814 18.1068C35.1398 17.2556 36.2893 16.0949 37.1297 14.6247ZM23.1982 9.7111C23.1982 8.56905 23.4205 7.60733 23.8791 6.73576C24.3376 5.86419 24.9681 5.18798 25.7706 4.70712C26.5731 4.1962 27.6238 3.94074 28.6843 3.94074C29.7447 3.94074 30.7954 4.1962 31.5979 4.70712C32.4004 5.18798 33.0309 5.86419 33.4894 6.73576C33.948 7.60733 34.1703 8.56905 34.1703 9.7111C34.1703 10.8532 33.948 11.8149 33.4894 12.6864C33.0309 13.558 32.4004 14.2342 31.5979 14.7151C30.7954 15.226 29.7447 15.4815 28.6843 15.4815C27.6238 15.4815 26.5731 15.226 25.7706 14.7151C24.9681 14.2342 24.3376 13.558 23.8791 12.6864C23.4205 11.8149 23.1982 10.8532 23.1982 9.7111ZM16.7275 11.4C16.7275 12.9128 16.3804 14.2658 15.6861 15.459C14.9918 16.6736 14.0423 17.6324 12.8376 18.3355C11.6532 19.06 10.2205 19.4222 8.70946 19.4222C7.1984 19.4222 5.76571 19.06 4.58136 18.3355C3.3766 17.6324 2.42708 16.6736 1.73281 15.459C1.03854 14.2658 0.691406 12.9128 0.691406 11.4C0.691406 9.88717 1.03854 8.53415 1.73281 7.34094C2.42708 6.12642 3.3766 5.16759 4.58136 4.46445C5.76571 3.74 7.1984 3.37777 8.70946 3.37777C10.2205 3.37777 11.6532 3.74 12.8376 4.46445C14.0423 5.16759 14.9918 6.12642 15.6861 7.34094C16.3804 8.53415 16.7275 9.88717 16.7275 11.4ZM5.31504 9.29548C4.99111 9.91195 4.83407 10.5922 4.83407 11.4C4.83407 12.2078 4.99111 12.888 5.31504 13.5045C5.63897 14.121 6.08437 14.5993 6.65125 14.9394C7.21812 15.3008 7.96038 15.4815 8.70946 15.4815C9.45855 15.4815 10.2008 15.3008 10.7677 14.9394C11.3346 14.5993 11.78 14.121 12.1039 13.5045C12.4278 12.888 12.5849 12.2078 12.5849 11.4C12.5849 10.5922 12.4278 9.91195 12.1039 9.29548C11.78 8.67901 11.3346 8.20071 10.7677 7.86058C10.2008 7.4992 9.45855 7.31851 8.70946 7.31851C7.96038 7.31851 7.21812 7.4992 6.65125 7.86058C6.08437 8.20071 5.63897 8.67901 5.31504 9.29548ZM37.5504 23.9689C37.6984 24.0085 37.7877 24.1596 37.7486 24.3079C37.3408 25.8558 36.7387 27.3142 35.9421 28.6831C34.31 31.5383 32.0778 33.7924 29.2456 35.4454C26.4613 37.1485 23.0932 38 19.5409 38C15.9886 38 12.6205 37.1485 9.83624 35.4454C7.00398 33.7924 4.77179 31.5383 3.13964 28.6831C2.34314 27.3142 1.74098 25.8558 1.33318 24.3079C1.29411 24.1596 1.38338 24.0086 1.53144 23.9689L4.94309 23.0542C5.09521 23.0135 5.25089 23.1057 5.29179 23.2578C5.61094 24.4453 6.07673 25.5654 6.68915 26.6179C7.96806 28.8552 9.71717 30.6214 11.9365 31.9167C14.1182 33.2512 16.7573 33.9185 19.5409 33.9185C22.3244 33.9185 24.9636 33.2512 27.1453 31.9167C29.3646 30.6214 31.1137 28.8552 32.3926 26.6179C33.005 25.5654 33.4708 24.4453 33.79 23.2578C33.8309 23.1056 33.9865 23.0134 34.1387 23.0542L37.5504 23.9689ZM62.0225 32.3703C61.8671 32.3703 61.7412 32.2443 61.7412 32.0889V26.7407H60.5555C59.0558 26.7407 57.6339 26.3912 56.4585 25.6922C55.2628 25.0137 54.3204 24.0885 53.6313 22.9166C52.9423 21.7653 52.5978 20.4597 52.5978 19C52.5978 17.5402 52.9423 16.2347 53.6313 15.0834C54.3204 13.9115 55.2628 12.9863 56.4585 12.3078C57.6339 11.6088 59.0558 11.2592 60.5555 11.2592H61.7412V5.91111C61.7412 5.75565 61.8671 5.62963 62.0225 5.62963H65.6798C65.8352 5.62963 65.9612 5.75565 65.9612 5.91111V11.2592H67.1468C68.6465 11.2592 70.0684 11.6088 71.2439 12.3078C72.4396 12.9863 73.382 13.9115 74.071 15.0834C74.7601 16.2347 75.1046 17.5402 75.1046 19C75.1046 20.4597 74.7601 21.7653 74.071 22.9166C73.382 24.0885 72.4396 25.0137 71.2439 25.6922C70.0684 26.3912 68.6465 26.7407 67.1468 26.7407H65.9612V32.0889C65.9612 32.2443 65.8352 32.3703 65.6798 32.3703H62.0225ZM65.9612 22.9383H67.1468C67.8903 22.9383 68.6269 22.7639 69.1896 22.4152C69.7522 22.087 70.1942 21.6255 70.5157 21.0307C70.8372 20.4358 70.9931 19.7794 70.9931 19C70.9931 18.2205 70.8372 17.5642 70.5157 16.9693C70.1942 16.3745 69.7522 15.913 69.1896 15.5848C68.6269 15.2361 67.8903 15.0617 67.1468 15.0617H65.9612V22.9383ZM60.5555 15.0617H61.7412V22.9383H60.5555C59.8121 22.9383 59.0754 22.7639 58.5128 22.4152C57.9502 22.087 57.5081 21.6255 57.1866 21.0307C56.8651 20.4358 56.7093 19.7794 56.7093 19C56.7093 18.2205 56.8651 17.5642 57.1866 16.9693C57.5081 16.3745 57.9502 15.913 58.5128 15.5848C59.0754 15.2361 59.8121 15.0617 60.5555 15.0617ZM80.8928 26.0027C82.026 26.7086 83.2982 27.0616 84.7094 27.0616C85.8212 27.0616 86.8155 26.837 87.6921 26.3877C88.262 26.0818 88.7551 25.708 89.1714 25.2665V26.4592C89.1714 26.6147 89.2973 26.7407 89.4527 26.7407H93.1101C93.2654 26.7407 93.3914 26.6147 93.3914 26.4592V11.5407C93.3914 11.3853 93.2654 11.2592 93.1101 11.2592H89.4527C89.2973 11.2592 89.1714 11.3853 89.1714 11.5407V12.7015C88.7551 12.2557 88.262 11.8868 87.6921 11.5948C86.8155 11.1455 85.8212 10.9209 84.7094 10.9209C83.2982 10.9209 82.026 11.2739 80.8928 11.9798C79.7596 12.6858 78.8722 13.6485 78.2308 14.8678C77.5894 16.0872 77.2686 17.467 77.2686 19.0073C77.2686 20.5262 77.5894 21.8953 78.2308 23.1147C78.8722 24.3341 79.7596 25.2967 80.8928 26.0027ZM88.3335 22.0237C87.6066 22.7938 86.6551 23.1789 85.4791 23.1789C84.7094 23.1789 84.0252 23.0077 83.4265 22.6654C82.8492 22.3018 82.3895 21.8097 82.0474 21.1894C81.7267 20.5476 81.5663 19.8095 81.5663 18.9752C81.5663 18.1623 81.7267 17.4457 82.0474 16.8253C82.3895 16.1835 82.8492 15.6915 83.4265 15.3492C84.0252 14.9855 84.7094 14.8037 85.4791 14.8037C86.2702 14.8037 86.9544 14.9855 87.5317 15.3492C88.1304 15.6915 88.5901 16.1835 88.9109 16.8253C89.253 17.4457 89.424 18.1623 89.424 18.9752C89.424 20.216 89.0605 21.2321 88.3335 22.0237ZM118.541 25.9716C119.795 26.672 121.209 27.0222 122.782 27.0222C123.993 27.0222 125.109 26.7993 126.129 26.3536C127.07 25.9429 127.911 25.361 128.652 24.6079C128.758 24.5001 128.755 24.3271 128.648 24.2201L126.343 21.9193C126.228 21.8039 126.039 21.8116 125.924 21.9271C125.563 22.2883 125.143 22.5753 124.663 22.7882C124.11 23.0217 123.483 23.1384 122.782 23.1384C122.016 23.1384 121.325 22.9686 120.709 22.629C120.114 22.2682 119.636 21.7801 119.274 21.1647C118.934 20.528 118.764 19.8064 118.764 18.9999C118.764 18.1722 118.934 17.4613 119.274 16.867C119.636 16.2516 120.114 15.7741 120.709 15.4345C121.325 15.0737 122.016 14.8933 122.782 14.8933C123.462 14.8933 124.078 15.0101 124.631 15.2435C125.11 15.4383 125.53 15.7071 125.89 16.0497C126.007 16.1609 126.193 16.1658 126.306 16.0511L128.589 13.7451C128.694 13.6391 128.698 13.4692 128.595 13.3617C127.89 12.6282 127.068 12.0563 126.129 11.6462C125.109 11.2006 123.993 10.9777 122.782 10.9777C121.23 10.9777 119.816 11.3385 118.541 12.0601C117.287 12.7604 116.298 13.7155 115.576 14.9252C114.853 16.1349 114.492 17.5037 114.492 19.0318C114.492 20.5386 114.853 21.8969 115.576 23.1065C116.298 24.3162 117.287 25.2713 118.541 25.9716ZM96.9081 26.4592C96.9081 26.6147 97.034 26.7407 97.1894 26.7407H100.847C101.002 26.7407 101.128 26.6147 101.128 26.4592V20.6889H107.458V26.4592C107.458 26.6147 107.584 26.7407 107.739 26.7407H111.397C111.552 26.7407 111.678 26.6147 111.678 26.4592V11.5407C111.678 11.3853 111.552 11.2593 111.397 11.2593H107.739C107.584 11.2593 107.458 11.3853 107.458 11.5407V17.3111H101.128V11.5407C101.128 11.3853 101.002 11.2593 100.847 11.2593H97.1894C97.034 11.2593 96.9081 11.3853 96.9081 11.5407V26.4592ZM131.653 26.7407C131.498 26.7407 131.372 26.6147 131.372 26.4592V11.5407C131.372 11.3853 131.498 11.2593 131.653 11.2593H135.31C135.466 11.2593 135.592 11.3853 135.592 11.5407V18.2349L141.075 11.4168C141.155 11.3172 141.276 11.2593 141.404 11.2593H145.647C145.826 11.2593 145.924 11.4683 145.809 11.6058L139.949 18.6202L146.15 26.398C146.26 26.5362 146.162 26.7407 145.985 26.7407H141.443C141.312 26.7407 141.187 26.6791 141.108 26.574L135.592 19.315V26.4592C135.592 26.6147 135.466 26.7407 135.31 26.7407H131.653ZM162.741 11.2593C162.896 11.2593 163.022 11.3853 163.022 11.5407V24.1252C163.022 26.9588 162.344 29.0648 160.989 30.4433C159.633 31.8218 157.663 32.5111 155.079 32.5111C153.705 32.5111 152.404 32.3292 151.175 31.9654C150.091 31.6398 149.159 31.1839 148.379 30.5975C148.22 30.4778 148.177 30.2597 148.269 30.0831L149.627 27.4857C149.711 27.3244 149.924 27.2846 150.068 27.3955C150.627 27.8253 151.285 28.1711 152.042 28.433C152.928 28.7394 153.822 28.8925 154.726 28.8925C156.136 28.8925 157.166 28.5479 157.817 27.8587C158.467 27.1694 158.793 26.1164 158.793 24.6996V24.1827C158.25 24.757 157.609 25.1974 156.868 25.5037C156.127 25.8101 155.332 25.9632 154.482 25.9632C152.566 25.9632 151.048 25.3888 149.928 24.2401C148.807 23.0722 148.252 21.3299 148.252 19.0133V11.5407C148.252 11.3853 148.378 11.2593 148.533 11.2593H152.191C152.346 11.2593 152.472 11.3853 152.472 11.5407V18.3528C152.472 20.8609 153.461 22.1149 155.431 22.1149C156.443 22.1149 157.266 21.7703 157.88 21.081C158.495 20.3727 158.802 19.3292 158.802 17.9507V11.5407C158.802 11.3853 158.928 11.2593 159.083 11.2593H162.741ZM168.232 11.2593C168.077 11.2593 167.951 11.3853 167.951 11.5407V19.9341C167.951 21.1701 167.722 22.0483 167.265 22.5688C166.872 23.0165 166.325 23.1914 165.626 23.0935C165.445 23.0682 165.273 23.2013 165.273 23.3843V26.7062C165.273 26.8504 165.383 26.9718 165.527 26.9838C169.952 27.3517 172.165 25.0777 172.165 20.1618V14.637H177.095V26.4592C177.095 26.6147 177.221 26.7407 177.376 26.7407H181.027C181.183 26.7407 181.309 26.6147 181.309 26.4592V11.5407C181.309 11.3853 181.183 11.2593 181.027 11.2593H168.232Z" fill="white"/>
</svg>
