<svg width="38" height="38" viewBox="0 0 38 38" fill="none" xmlns="http://www.w3.org/2000/svg">
<path fill-rule="evenodd" clip-rule="evenodd" d="M16.0361 11.4C16.0361 12.9128 15.689 14.2658 14.9947 15.459C14.3004 16.6736 13.3509 17.6324 12.1462 18.3355C10.9618 19.06 9.52912 19.4222 8.01806 19.4222C6.507 19.4222 5.0743 19.06 3.88996 18.3355C2.68519 17.6324 1.73568 16.6736 1.04141 15.459C0.347135 14.2658 0 12.9128 0 11.4C0 9.88717 0.347135 8.53415 1.04141 7.34094C1.73568 6.12642 2.68519 5.16759 3.88996 4.46445C5.0743 3.74 6.507 3.37777 8.01806 3.37777C9.52912 3.37777 10.9618 3.74 12.1462 4.46445C13.3509 5.16759 14.3004 6.12642 14.9947 7.34094C15.689 8.53415 16.0361 9.88717 16.0361 11.4ZM4.62363 9.29548C4.2997 9.91195 4.14266 10.5922 4.14266 11.4C4.14266 12.2078 4.2997 12.888 4.62363 13.5045C4.94756 14.121 5.39296 14.5993 5.95984 14.9394C6.52672 15.3008 7.26897 15.4815 8.01806 15.4815C8.76714 15.4815 9.5094 15.3008 10.0763 14.9394C10.6432 14.5993 11.0886 14.121 11.4125 13.5045C11.7364 12.888 11.8935 12.2078 11.8935 11.4C11.8935 10.5922 11.7364 9.91195 11.4125 9.29548C11.0886 8.67901 10.6432 8.20071 10.0763 7.86058C9.5094 7.4992 8.76714 7.31851 8.01806 7.31851C7.26897 7.31851 6.52672 7.4992 5.95984 7.86058C5.39296 8.20071 4.94756 8.67901 4.62363 9.29548Z" fill="white"/>
<path d="M36.859 23.9689C37.007 24.0085 37.0963 24.1596 37.0572 24.3079C36.6494 25.8558 36.0472 27.3142 35.2507 28.6831C33.6186 31.5383 31.3864 33.7924 28.5541 35.4454C25.7699 37.1485 22.4018 38 18.8495 38C15.2972 38 11.9291 37.1485 9.14483 35.4454C6.31258 33.7924 4.08038 31.5383 2.44824 28.6831C1.65173 27.3142 1.04958 25.8558 0.641774 24.3079C0.602705 24.1596 0.691977 24.0086 0.840031 23.9689L4.25169 23.0542C4.40381 23.0135 4.55949 23.1057 4.60038 23.2578C4.91954 24.4453 5.38532 25.5654 5.99774 26.6179C7.27666 28.8552 9.02577 30.6214 11.2451 31.9167C13.4268 33.2512 16.0659 33.9185 18.8495 33.9185C21.633 33.9185 24.2722 33.2512 26.4539 31.9167C28.6732 30.6214 30.4223 28.8552 31.7012 26.6179C32.3136 25.5654 32.7794 24.4453 33.0986 23.2578C33.1395 23.1056 33.2951 23.0134 33.4473 23.0542L36.859 23.9689Z" fill="white"/>
<path fill-rule="evenodd" clip-rule="evenodd" d="M37.6989 9.7111C37.6989 11.5424 37.2787 13.1803 36.4383 14.6247C35.5979 16.0949 34.4484 17.2556 32.99 18.1068C31.5564 18.9837 29.822 19.4222 27.9929 19.4222C26.1637 19.4222 24.4294 18.9837 22.9957 18.1068C21.5373 17.2556 20.3879 16.0949 19.5474 14.6247C18.707 13.1803 18.2868 11.5424 18.2868 9.7111C18.2868 7.87979 18.707 6.24193 19.5474 4.79752C20.3879 3.32731 21.5373 2.16662 22.9957 1.31545C24.4294 0.438483 26.1637 0 27.9929 0C29.822 0 31.5564 0.438483 32.99 1.31545C34.4484 2.16662 35.5979 3.32731 36.4383 4.79752C37.2787 6.24193 37.6989 7.87979 37.6989 9.7111ZM23.1877 6.73576C22.7291 7.60733 22.5068 8.56905 22.5068 9.7111C22.5068 10.8532 22.7291 11.8149 23.1877 12.6864C23.6462 13.558 24.2767 14.2342 25.0792 14.7151C25.8817 15.226 26.9324 15.4815 27.9928 15.4815C29.0533 15.4815 30.104 15.226 30.9065 14.7151C31.709 14.2342 32.3395 13.558 32.798 12.6864C33.2566 11.8149 33.4789 10.8532 33.4789 9.7111C33.4789 8.56905 33.2566 7.60733 32.798 6.73576C32.3395 5.86419 31.709 5.18798 30.9065 4.70712C30.104 4.1962 29.0533 3.94074 27.9928 3.94074C26.9324 3.94074 25.8817 4.1962 25.0792 4.70712C24.2767 5.18798 23.6462 5.86419 23.1877 6.73576Z" fill="white"/>
</svg>
