<svg width="54" height="60" viewBox="0 0 54 60" fill="none" xmlns="http://www.w3.org/2000/svg">
<path d="M3.22074 30.5802L34.1054 2C36.9501 2 39.9593 3.04698 42.6864 4.7351M3.22074 30.5802L2.61037 44.2901M3.22074 30.5802C7.09586 30.2827 11.4837 31.3727 15.5956 33.3986M30.077 48.7786L51.8671 16.4733C51.4122 14.3838 50.3475 12.2782 48.8804 10.3447M30.077 48.7786L16.0385 53.3893M30.077 48.7786C29.1843 45.7018 27.3092 42.7519 24.8459 40.1544M2.61037 44.2901L2 58L16.0385 53.3893M2.61037 44.2901C2.61037 44.2901 6.66131 45.0121 10.0569 47.313C13.4524 49.6139 16.0385 53.3893 16.0385 53.3893M24.8459 40.1544L48.8804 10.3447M24.8459 40.1544C22.2588 37.4265 19.0231 35.0873 15.5956 33.3986M48.8804 10.3447C47.2277 8.16671 45.0643 6.20715 42.6864 4.7351M15.5956 33.3986L42.6864 4.7351" stroke="#FF6600" stroke-width="3" stroke-linecap="round" stroke-linejoin="round"/>
</svg>
