<svg width="44" height="60" viewBox="0 0 44 60" fill="none" xmlns="http://www.w3.org/2000/svg">
<path d="M12.232 58C12.232 58 -5.69681 35.1974 5.91093 31.4716C9.42869 30.3425 13.1485 34.8543 13.1485 34.8543C13.1485 34.8543 6.67225 11.6383 15.1688 11.6383C19.451 11.6383 21.0735 19.008 21.0735 19.008C21.0735 19.008 29.261 -2.30647 37.3766 2.78621C44.5364 7.27917 33.7965 23.4038 33.7965 23.4038C33.7965 23.4038 38.3067 22.0053 40.5371 23.4038C47.1573 27.555 27.3635 39.2312 27.3635 39.2312C27.3635 39.2312 35.3583 38.9217 37.3766 42.5088C43.0388 52.5723 12.232 58 12.232 58ZM12.232 58C14.2365 50.2871 20.7459 30.5416 30.7478 13.2631" stroke="#33CC66" stroke-width="3" stroke-linecap="round" stroke-linejoin="round"/>
</svg>
