<svg width="53" height="60" viewBox="0 0 53 60" fill="none" xmlns="http://www.w3.org/2000/svg">
<path d="M37.4976 29.5485C28.0122 26.2199 22.1679 32.1474 27.0985 36.5137M48.314 45.3856C46.4936 47.5821 43.0178 49.1328 36.8416 48.7644C30.9903 48.4155 27.9882 46.4578 26.6855 44.1088M48.314 45.3856C49.1882 49.3706 47.9336 57.1719 36.2276 56.1358C33.3423 55.8804 31.1906 55.2472 29.6129 54.3821M48.314 45.3856C50.368 42.9072 50.1042 39.1615 49.4328 36.843M26.6855 44.1088C25.2707 41.5577 25.9719 38.4344 27.0985 36.5137M26.6855 44.1088C25.3324 46.9239 24.7897 51.7371 29.6129 54.3821M10.9986 24.8655C11.9556 24.8655 12.8282 24.7558 13.6271 24.552M29.915 54.29C29.8145 54.3213 29.7138 54.3521 29.6129 54.3821M13.6271 24.552C24.3862 21.8064 21.6048 1.13901 31.977 2.02784C42.6298 2.94072 33.2787 23.0398 33.2787 23.0398C39.4234 22.1421 50.8978 23.5235 51.2365 31.1916C51.3425 33.5926 50.6513 35.4504 49.4328 36.843M13.6271 24.552C13.6271 24.552 12.5338 20.9414 9.50692 20.7073C-1.49447 19.8563 0.840027 55.7712 8.52997 57.7258C14.2218 59.1724 15.8323 54.4243 15.8323 54.4243M15.8323 54.4243C14.1365 53.8001 12.7197 52.908 11.5723 51.7688M15.8323 54.4243C19.4952 55.7725 24.7415 55.8338 29.6129 54.3821M49.4328 36.843C44.5333 42.4431 32.3149 41.1331 27.0985 36.5137" stroke="#00CCCC" stroke-width="3" stroke-linecap="round" stroke-linejoin="round"/>
</svg>
