<svg width="87" height="62" viewBox="0 0 87 62" fill="none" xmlns="http://www.w3.org/2000/svg">
<path d="M35.0956 40.3898C30.4822 41.0985 25.3651 40.2867 21.9648 39.3756M35.7983 28.6506C31.4068 29.5167 27.5853 29.389 23.3072 29.1916M12.355 18.6465C12.355 18.6465 15.8098 16.1006 20.2648 13.1954M20.2648 13.1954C30.311 6.64392 47.6851 -2.98168 54.3493 3.76936C62.9545 12.4868 44.8449 23.2125 44.8449 23.2125C44.8449 23.2125 85.7375 13.3265 85.9421 28.2817C86.0261 34.423 78.9074 37.2078 70.4874 38.357M20.2648 13.1954C20.2648 13.1954 17.2864 5.35073 11.1116 5.79272C-0.533666 6.62627 -3.11921 60.6275 10.9811 60.9804C17.6261 61.1467 18.5857 51.9867 18.5857 51.9867M18.5857 51.9867C15.8456 50.9613 13.488 49.9946 11.7233 49.2132M18.5857 51.9867C35.1459 58.1841 65.6153 66.1821 63.6719 48.7251M63.6719 48.7251C59.4231 49.972 52.9426 50.2189 43.3076 48.4967M63.6719 48.7251C70.9704 46.583 71.6832 41.4897 70.4874 38.357M70.4874 38.357C58.4032 40.0064 43.6385 38.2872 43.6385 38.2872" stroke="#FFB280" stroke-width="2" stroke-linecap="round" stroke-linejoin="round"/>
</svg>
