<svg width="94" height="82" viewBox="0 0 94 82" fill="none" xmlns="http://www.w3.org/2000/svg">
<path d="M19.9683 43.1584C12.8441 39.6986 6.84124 33.79 3.68112 25.7638C-4.16854 5.82702 17.2857 0.947268 17.2688 1.09301M19.9683 43.1584C27.7874 46.9557 36.9571 47.803 45.2014 45.2623C51.9474 43.1835 61.8083 33.2841 53.3124 26.8954C45.6865 21.1609 33.8404 23.988 27.2661 30.0852C22.6052 34.4079 20.3449 38.8708 19.9683 43.1584ZM19.9683 43.1584C19.2227 51.6463 25.8593 59.447 35.8663 64.112C52.5533 71.8907 76.0907 67.2718 92.3786 60.5314M92.3786 60.5314C86.7343 63.5871 82.7173 69.4019 80.7546 75.382C80.1567 77.2031 79.4661 78.9928 79.5923 80.9428M92.3786 60.5314C85.5436 61.7574 76.2629 61.0377 71.455 55.5435" stroke="#6600CC" stroke-width="2" stroke-miterlimit="1.5" stroke-linecap="round" stroke-linejoin="round"/>
</svg>
