<svg width="256" height="15" viewBox="0 0 256 15" fill="none" xmlns="http://www.w3.org/2000/svg">
<path d="M2.67345 15H253.324V11.6646H2.67345V15ZM1.7823 3.47652C73.918 3.47652 187.379 2.46894 254.12 5.82754L254.311 2.50369C187.439 -0.866498 73.8348 0.141082 1.7823 0.141082V3.47652ZM253.324 15C254.311 15 255.107 14.2588 255.107 13.3323C255.107 12.4058 254.311 11.6646 253.324 11.6646V15ZM2.67345 11.6646C1.68725 11.6646 0.891151 12.4058 0.891151 13.3323C0.891151 14.2588 1.68725 15 2.67345 15V11.6646ZM254.12 5.82754C255.107 5.87387 255.95 5.1674 255.998 4.25247C256.045 3.33754 255.297 2.55001 254.311 2.50369L254.12 5.82754ZM1.7823 0.141082C0.796095 0.141082 0 0.893872 0 1.8088C0 2.72373 0.796095 3.47652 1.7823 3.47652V0.141082Z" fill="#00CCCC"/>
</svg>
