<svg width="87" height="63" viewBox="0 0 87 63" fill="none" xmlns="http://www.w3.org/2000/svg">
<g clip-path="url(#clip0_1_34)">
<path d="M8.26998 51.49L3.05998 41.48L0.179982 42.98L5.38998 52.99L8.26998 51.49ZM19.35 48.35L6.54998 50.64L7.11998 53.83L19.92 51.54L19.35 48.35ZM31.53 32.57C20.72 35.26 10.86 41.16 5.39998 51.48L8.25998 53C13.17 43.73 22.1 38.26 32.31 35.72L31.53 32.57ZM84.53 56.75C86.92 52.23 86.31 47.83 83.63 44.08C81.03 40.44 76.52 37.43 71.1 35.22C60.24 30.78 45.01 29.22 31.53 32.57L32.31 35.72C45.11 32.54 59.63 34.04 69.87 38.22C75 40.32 78.88 43.02 80.99 45.97C83.02 48.81 83.43 51.9 81.67 55.23L84.53 56.75ZM30.44 34.81C35.92 46.92 47.51 55.65 58.48 59.83C63.97 61.92 69.43 62.92 74.01 62.56C78.57 62.2 82.57 60.46 84.53 56.75L81.67 55.23C80.44 57.56 77.75 59.01 73.76 59.32C69.79 59.63 64.82 58.77 59.63 56.79C49.23 52.83 38.43 44.6 33.39 33.47L30.44 34.81ZM32.18 0.889997C25.66 13.68 26.11 25.24 30.44 34.82L33.39 33.48C29.48 24.83 28.99 14.3 35.07 2.36L32.18 0.889997ZM3.05998 41.48C2.64998 40.69 1.66998 40.38 0.869982 40.79C0.0799815 41.2 -0.230018 42.18 0.179982 42.98L3.05998 41.48ZM19.92 51.54C20.8 51.38 21.39 50.54 21.23 49.66C21.07 48.78 20.23 48.19 19.35 48.35L19.92 51.54ZM6.82998 52.24L5.38998 52.99C5.71998 53.62 6.40998 53.96 7.10998 53.84L6.81998 52.24H6.82998ZM35.07 2.36C35.48 1.56 35.16 0.589997 34.36 0.179997C33.56 -0.230003 32.59 0.0899969 32.18 0.889997L35.07 2.36Z" fill="#00CCCC"/>
</g>
<defs>
<clipPath id="clip0_1_34">
<rect width="86.03" height="62.63" fill="white"/>
</clipPath>
</defs>
</svg>
