<svg width="70" height="69" viewBox="0 0 70 69" fill="none" xmlns="http://www.w3.org/2000/svg">
<path d="M67.5354 67.8804L8.26041 63.267M67.5354 67.8804L53.8134 23.4897M67.5354 67.8804L68.0175 9.28425M67.5354 67.8804L24.8905 48.3479M8.26041 63.267L1.98823 40.6132M8.26041 63.267L24.8905 48.3479M53.8134 23.4897L24.8905 48.3479M53.8134 23.4897L21.7437 15.6212M53.8134 23.4897L46.8059 1.15154M53.8134 23.4897L68.0175 9.28425M1.98823 40.6132L24.8905 48.3479M1.98823 40.6132L21.7437 15.6212M24.8905 48.3479L21.7437 15.6212M21.7437 15.6212L46.8059 1.15154M46.8059 1.15154L68.0175 9.28425" stroke="#80E5E5" stroke-width="2" stroke-linecap="round" stroke-linejoin="round"/>
</svg>
