<svg width="294" height="40" viewBox="0 0 294 40" fill="none" xmlns="http://www.w3.org/2000/svg">
<path d="M293 8.54005C287.559 4.04095 265.805 -1.94176 222.322 10.1201C218.536 11.1702 215.045 12.1927 211.829 13.1881M211.829 13.1881C178.107 23.6255 174.705 31.0744 180.364 36.0101C186.217 41.1153 218.774 28.8124 211.829 13.1881ZM211.829 13.1881C211.419 12.2666 210.872 11.3335 210.174 10.3917C195.966 -8.77744 146.372 5.28543 120.484 18.1472M120.484 18.1472C120.238 18.269 119.995 18.3908 119.754 18.5124C108.829 24.0262 100.174 32.2579 103.612 37.7259C107.019 43.1456 125.569 30.2632 120.484 18.1472ZM120.484 18.1472C118.725 13.9572 114.14 9.85878 105.125 6.64074C77.0564 -3.37795 24.0131 11.0417 1 19.5038" stroke="#D9BFF2" stroke-width="2" stroke-linecap="round"/>
</svg>
