<svg width="347" height="347" viewBox="0 0 347 347" fill="none" xmlns="http://www.w3.org/2000/svg">
<path d="M145.648 0.75C132.31 0.75 121.498 11.5623 121.498 24.9V47.5015L105.516 31.5196C96.0851 22.0885 80.7942 22.0885 71.363 31.5196L31.5175 71.3651C22.0864 80.7963 22.0864 96.0872 31.5175 105.518L47.4992 121.5H24.9C11.5623 121.5 0.750004 132.312 0.750004 145.65L0.75 202C0.749999 215.338 11.5623 226.15 24.9 226.15H47.4995L31.5181 242.131C22.0869 251.563 22.0869 266.854 31.5181 276.285L71.3635 316.13C80.7947 325.561 96.0856 325.561 105.517 316.13L121.498 300.149V322.75C121.498 336.088 132.31 346.9 145.648 346.9H201.998C215.336 346.9 226.148 336.088 226.148 322.75V300.149L242.129 316.13C251.56 325.561 266.851 325.561 276.283 316.13L316.128 276.285C325.559 266.853 325.559 251.563 316.128 242.131L300.147 226.15H322.75C336.088 226.15 346.9 215.338 346.9 202V145.65C346.9 132.312 336.088 121.5 322.75 121.5H300.147L316.129 105.518C325.56 96.0872 325.56 80.7963 316.129 71.3652L276.283 31.5197C266.852 22.0885 251.561 22.0885 242.13 31.5197L226.148 47.5013V24.9C226.148 11.5623 215.336 0.75 201.998 0.75H145.648Z" fill="#FFB280"/>
</svg>
