<svg width="240" height="33" viewBox="0 0 240 33" fill="none" xmlns="http://www.w3.org/2000/svg">
<path d="M153.14 29.13C164.8 33.6 181.59 33.01 197.6 30.59C213.68 28.16 229.28 23.84 238.75 20.59L237.79 17.8C228.46 21 213.04 25.27 197.16 27.67C181.21 30.08 165.09 30.54 154.2 26.37L153.14 29.13ZM156.73 1.8C155.92 0.46 154.53 0 153.19 0C151.88 0 150.44 0.45 149.06 1.12C146.28 2.47 143.31 4.98 141.39 8.08C139.46 11.2 138.51 15.09 140.19 19C141.85 22.86 145.91 26.37 153.14 29.13L154.2 26.37C147.32 23.74 144.12 20.64 142.91 17.83C141.72 15.07 142.31 12.21 143.91 9.63C145.52 7.03 148.06 4.89 150.36 3.77C151.52 3.21 152.51 2.95 153.22 2.95C153.9 2.95 154.11 3.16 154.21 3.31L156.74 1.8H156.73ZM142.67 19.19C147.25 17 151.45 14.21 154.19 11.31C155.56 9.86 156.63 8.31 157.16 6.71C157.7 5.08 157.66 3.36 156.73 1.8L154.2 3.31C154.61 4 154.69 4.79 154.36 5.78C154.02 6.81 153.25 8 152.04 9.28C149.63 11.83 145.78 14.44 141.4 16.53L142.67 19.19ZM67.4098 23.66C70.5298 28.08 75.6398 30.53 81.6098 31.63C87.5898 32.74 94.6198 32.55 101.86 31.55C116.35 29.55 132.03 24.27 142.66 19.19L141.39 16.53C130.99 21.5 115.6 26.68 101.46 28.63C94.3898 29.61 87.7098 29.76 82.1498 28.74C76.5898 27.71 72.3298 25.52 69.8198 21.97L67.4098 23.67V23.66ZM94.2298 1.47C93.2598 0.58 91.8698 0.21 90.4898 0.1C89.0598 -0.02 87.4098 0.1 85.6698 0.42C82.1898 1.05 78.1898 2.47 74.6598 4.49C71.1598 6.5 67.9498 9.2 66.3098 12.47C64.5998 15.87 64.6498 19.74 67.4198 23.67L69.8298 21.97C67.6798 18.92 67.7298 16.21 68.9398 13.8C70.2198 11.26 72.8598 8.93 76.1298 7.06C79.3698 5.2 83.0598 3.9 86.1998 3.33C87.7698 3.05 89.1498 2.96 90.2398 3.05C91.3698 3.15 91.9898 3.42 92.2498 3.66L94.2398 1.48L94.2298 1.47ZM59.1298 24.24C76.8598 19.74 86.9498 15.75 91.9898 12.21C94.4998 10.45 96.0398 8.6 96.3698 6.6C96.7098 4.5 95.6498 2.77 94.2298 1.48L92.2398 3.66C93.2898 4.62 93.5698 5.42 93.4598 6.13C93.3298 6.94 92.5898 8.19 90.2998 9.8C85.7398 13 76.1298 16.89 58.4098 21.39L59.1398 24.25L59.1298 24.24ZM0.509842 23.92C3.02984 26.11 8.88984 28.39 18.3498 29.06C27.8898 29.73 41.2898 28.77 59.1398 24.24L58.4098 21.38C40.7998 25.85 27.7198 26.76 18.5598 26.12C9.31984 25.47 4.24984 23.26 2.44984 21.7L0.519842 23.93L0.509842 23.92ZM238.75 20.6C239.52 20.34 239.93 19.5 239.67 18.73C239.41 17.96 238.57 17.55 237.8 17.81L238.76 20.6H238.75ZM2.43984 21.69C1.81984 21.16 0.889842 21.22 0.359842 21.84C-0.170158 22.46 -0.110158 23.39 0.509842 23.92L2.43984 21.69Z" fill="#6600CC"/>
</svg>
