<svg width="71" height="50" viewBox="0 0 71 50" fill="none" xmlns="http://www.w3.org/2000/svg">
<path d="M25.79 48.9929L38.33 34.8929L36.02 32.8329L23.48 46.9329L25.79 48.9929ZM37.71 32.4129L33.49 30.8429L32.41 33.7429L36.63 35.3129L37.71 32.4129ZM60.83 40.9929L37.71 32.4129L36.63 35.3129L59.75 43.8929L60.83 40.9929ZM26 48.6929L34.32 33.0229L31.59 31.5729L23.27 47.2429L26 48.6929ZM18.84 27.7829L23.12 48.2829L26.15 47.6529L21.87 27.1529L18.84 27.7829ZM33.96 33.4629L69.49 2.72294L67.47 0.382935L31.94 31.1229L33.96 33.4629ZM66.96 1.24294L58.78 42.1329L61.81 42.7429L69.99 1.85294L66.96 1.24294ZM20.8 25.9829L2 20.2429L1.1 23.2029L19.9 28.9429L20.8 25.9829ZM67.74 0.192935L19.62 26.1029L21.09 28.8229L69.21 2.91294L67.74 0.192935ZM1.99 23.2029L68.92 3.03294L68.03 0.0729354L1.1 20.2429L1.99 23.2029ZM24.64 47.9629L23.13 48.2829C23.25 48.8529 23.68 49.3129 24.25 49.4629C24.81 49.6129 25.42 49.4329 25.8 48.9929L24.64 47.9629ZM32.95 32.2929L31.94 31.1229C31.8 31.2529 31.68 31.4029 31.59 31.5629L32.96 32.2929H32.95ZM60.3 42.4429L59.76 43.8929C60.18 44.0529 60.66 44.0129 61.05 43.7929C61.45 43.5729 61.72 43.1929 61.81 42.7429L60.29 42.4429H60.3ZM68.48 1.55294L70 1.85294C70.11 1.32294 69.93 0.772935 69.52 0.402935C69.12 0.0329354 68.55 -0.0870646 68.03 0.0629354L68.48 1.54294V1.55294ZM1.55 21.7229L1.1 20.2429C0.45 20.4329 0 21.0429 0 21.7229C0 22.4029 0.44 23.0029 1.1 23.2029L1.55 21.7229Z" fill="#00CCCC"/>
</svg>
