<svg width="123" height="258" viewBox="0 0 123 258" fill="none" xmlns="http://www.w3.org/2000/svg">
<path d="M21.2034 1C7.54433 32.9916 -0.386294 72.4822 16.0196 104.977C20.175 113.207 26.7128 120.394 34.5376 125.849M34.5376 125.849C46.4553 134.158 61.3584 138.449 75.3764 136.29C97.3076 132.912 118.111 120.335 121.238 97.1645C122.868 85.0874 118.956 73.8544 106.56 69.6991C87.6213 63.3507 64.3861 79.5562 53.4637 93.605C45.912 103.318 39.5743 114.218 34.5376 125.849ZM34.5376 125.849C16.84 166.72 15.2065 216.625 33.4181 255.843M1 229.751C7.98721 236.482 24.4246 251.354 34.2767 257C36.8568 247.79 43.3809 226.967 48.8367 217.354" stroke="#6600CC" stroke-width="2" stroke-linecap="round" stroke-linejoin="round"/>
</svg>
