<svg width="48" height="64" viewBox="0 0 48 64" fill="none" xmlns="http://www.w3.org/2000/svg">
<g clip-path="url(#clip0_292_1811)">
<path d="M1 24C1 11.2985 11.2985 1 24 1C36.6978 1 47 11.2986 47 24C47 26.3562 46.7948 28.2371 46.2302 30.1426C45.6632 32.0559 44.7195 34.0425 43.1859 36.5924C41.2051 39.8858 38.3034 44.021 34.0787 50.0417C31.7077 53.4205 28.9201 57.3932 25.6447 62.1442C24.8511 63.2898 23.1541 63.2899 22.3603 62.1441C19.0964 57.4128 16.3168 53.4533 13.9511 50.0836C9.70943 44.0415 6.79864 39.8952 4.81335 36.5943C3.27969 34.0443 2.33617 32.0574 1.76944 30.1438C1.20498 28.238 1 26.3566 1 24Z" fill="#FEB200" stroke="white" stroke-width="2"/>
<path fill-rule="evenodd" clip-rule="evenodd" d="M36.7696 26.784C36.8574 26.8075 36.9103 26.897 36.8873 26.9849C36.5987 28.0885 36.1702 29.1277 35.6016 30.1026C34.447 32.1174 32.8681 33.708 30.8647 34.8745C28.8952 36.0764 26.5128 36.6773 24 36.6773C21.4872 36.6773 19.1048 36.0764 17.1353 34.8745C15.1319 33.708 13.5529 32.1174 12.3984 30.1026C11.8298 29.1277 11.4012 28.0885 11.1127 26.9849C11.0897 26.897 11.1426 26.8075 11.2304 26.784L13.7061 26.1219C13.7962 26.0978 13.8883 26.1524 13.9123 26.2425C14.1383 27.0922 14.4706 27.8932 14.9092 28.6453C15.8139 30.224 17.0511 31.4705 18.621 32.3845C20.1642 33.3262 22.031 33.7971 24 33.7971C25.9689 33.7971 27.8358 33.3262 29.379 32.3845C30.9489 31.4705 32.1861 30.224 33.0908 28.6453C33.5294 27.8932 33.8617 27.0922 34.0877 26.2425C34.1116 26.1524 34.2038 26.0978 34.2939 26.1219L36.7696 26.784Z" fill="white"/>
<path fill-rule="evenodd" clip-rule="evenodd" d="M37.3334 16.7152C37.3334 18.0075 37.0362 19.1633 36.4417 20.1825C35.8472 21.22 35.0341 22.0391 34.0025 22.6397C32.9884 23.2586 31.7616 23.568 30.4677 23.568C29.1738 23.568 27.9471 23.2586 26.9329 22.6397C25.9013 22.0391 25.0883 21.22 24.4938 20.1825C23.8993 19.1633 23.6021 18.0075 23.6021 16.7152C23.6021 15.4229 23.8993 14.2671 24.4938 13.2478C25.0883 12.2103 25.9013 11.3912 26.9329 10.7906C27.9471 10.1717 29.1738 9.8623 30.4677 9.8623C31.7616 9.8623 32.9884 10.1717 34.0025 10.7906C35.0341 11.3912 35.8472 12.2103 36.4417 13.2478C37.0362 14.2671 37.3334 15.4229 37.3334 16.7152ZM27.0687 14.6155C26.7444 15.2306 26.5871 15.9092 26.5871 16.7152C26.5871 17.5211 26.7444 18.1997 27.0687 18.8148C27.3931 19.4298 27.8391 19.907 28.4067 20.2463C28.9744 20.6069 29.7176 20.7872 30.4677 20.7872C31.2178 20.7872 31.9611 20.6069 32.5287 20.2463C33.0963 19.907 33.5423 19.4298 33.8667 18.8148C34.1911 18.1997 34.3483 17.5211 34.3483 16.7152C34.3483 15.9092 34.1911 15.2306 33.8667 14.6155C33.5423 14.0005 33.0963 13.5233 32.5287 13.184C31.9611 12.8234 31.2178 12.6432 30.4677 12.6432C29.7176 12.6432 28.9744 12.8234 28.4067 13.184C27.8391 13.5233 27.3931 14.0005 27.0687 14.6155Z" fill="white"/>
<path fill-rule="evenodd" clip-rule="evenodd" d="M22.0099 17.9062C22.0099 18.9737 21.7644 19.9285 21.2733 20.7705C20.7822 21.6276 20.1105 22.3042 19.2583 22.8004C18.4206 23.3116 17.4071 23.5672 16.3383 23.5672C15.2694 23.5672 14.256 23.3116 13.4182 22.8004C12.566 22.3042 11.8944 21.6276 11.4033 20.7705C10.9122 19.9285 10.6666 18.9737 10.6666 17.9062C10.6666 16.8386 10.9122 15.8838 11.4033 15.0418C11.8944 14.1848 12.566 13.5081 13.4182 13.012C14.256 12.5007 15.2694 12.2451 16.3383 12.2451C17.4071 12.2451 18.4206 12.5007 19.2583 13.012C20.1105 13.5081 20.7822 14.1848 21.2733 15.0418C21.7644 15.8838 22.0099 16.8386 22.0099 17.9062ZM13.9372 16.4211C13.7081 16.8561 13.597 17.3361 13.597 17.9062C13.597 18.4762 13.7081 18.9562 13.9372 19.3913C14.1663 19.8263 14.4814 20.1638 14.8824 20.4038C15.2834 20.6589 15.8084 20.7864 16.3383 20.7864C16.8681 20.7864 17.3932 20.6589 17.7942 20.4038C18.1951 20.1638 18.5102 19.8263 18.7393 19.3913C18.9685 18.9562 19.0796 18.4762 19.0796 17.9062C19.0796 17.3361 18.9685 16.8561 18.7393 16.4211C18.5102 15.9861 18.1951 15.6485 17.7942 15.4085C17.3932 15.1535 16.8681 15.026 16.3383 15.026C15.8084 15.026 15.2834 15.1535 14.8824 15.4085C14.4814 15.6485 14.1663 15.9861 13.9372 16.4211Z" fill="white"/>
</g>
<defs>
<clipPath id="clip0_292_1811">
<rect width="48" height="64" fill="white"/>
</clipPath>
</defs>
</svg>
