<svg width="395" height="33" viewBox="0 0 395 33" fill="none" xmlns="http://www.w3.org/2000/svg">
<path d="M274.71 32C229.539 22.3607 179.113 27.591 133.41 28.4763C120.268 28.7311 106.822 30.4301 93.6934 29.7026C91.981 29.6081 84.5101 29.2536 83.1087 27.3592C82.9257 27.1126 88.7514 26.1405 91.5817 25.7247C97.0849 24.9161 102.586 24.3196 108.084 23.4656C122.54 21.2218 137.249 20.1271 151.832 19.1186C189.266 16.5318 256.233 8.56016 292.819 19.802C294.631 20.359 289.027 19.7062 287.132 19.6545C284.017 19.5702 280.903 19.4482 277.788 19.3504C267.627 19.033 257.379 18.4684 247.217 18.5572C214.467 18.8414 181.601 17.4758 148.859 18.6989C139.007 19.0675 129.187 19.8327 119.33 20.1284C113.621 20.2996 113.877 20.4446 107.976 20.2446C105.418 20.1578 98.3237 20.9261 100.347 19.3606C103.911 16.6027 115.049 17.2925 119.357 16.7298C139.026 14.1635 158.647 10.8122 178.417 9.0117C229.109 4.39513 280.714 4.38427 331.521 6.31571C352.306 7.10579 373.305 4.04962 394 6.51886C343.785 0.045572 291.589 0.964659 241.098 1.1518C184.25 1.36257 127.466 1.37662 70.6164 2.57228C47.2777 3.06281 24.4097 7.49912 1 7.1753" stroke="#40D9D9" stroke-width="2" stroke-miterlimit="1.5" stroke-linecap="round" stroke-linejoin="round"/>
</svg>
