<svg width="90" height="90" viewBox="0 0 90 90" fill="none" xmlns="http://www.w3.org/2000/svg">
<path d="M15.1834 11.236C12.313 13.041 11.4494 16.8312 13.2544 19.7016L16.3132 24.5656L10.7108 23.2891C7.40481 22.5358 4.11406 24.6052 3.36075 27.9112L0.178122 41.8788C-0.575187 45.1848 1.4942 48.4756 4.80024 49.2289L10.4025 50.5054L5.53895 53.5639C2.66856 55.3689 1.80494 59.1591 3.60999 62.0295L11.2361 74.1565C13.0411 77.0269 16.8313 77.8905 19.7017 76.0855L24.5653 73.027L23.2888 78.6292C22.5355 81.9352 24.6049 85.226 27.9109 85.9793L41.8785 89.1619C45.1845 89.9152 48.4753 87.8458 49.2286 84.5398L50.5051 78.9376L53.5638 83.8016C55.3689 86.672 59.1591 87.5356 62.0295 85.7306L74.1565 78.1045C77.0269 76.2994 77.8905 72.5092 76.0855 69.6388L73.0268 64.7749L78.6288 66.0514C81.9349 66.8047 85.2256 64.7353 85.9789 61.4292L89.1616 47.4617C89.9149 44.1556 87.8455 40.8649 84.5394 40.1116L78.9373 38.8351L83.8017 35.7761C86.6721 33.971 87.5357 30.1808 85.7307 27.3104L78.1046 15.1834C76.2995 12.313 72.5093 11.4494 69.639 13.2544L64.7746 16.3134L66.0511 10.7112C66.8044 7.40514 64.735 4.11439 61.429 3.36108L47.4614 0.178454C44.1554 -0.574854 40.8646 1.49454 40.1113 4.80057L38.8348 10.4028L35.776 5.53882C33.971 2.66844 30.1808 1.80481 27.3104 3.60986L15.1834 11.236Z" fill="#FF8C40"/>
</svg>
