<svg width="520" height="520" viewBox="0 0 520 520" fill="none" xmlns="http://www.w3.org/2000/svg">
<path d="M310.419 54.1471C303.794 32.1319 283.366 16.0952 259.192 16.0952C235.018 16.0952 214.589 32.1321 207.965 54.1475C191.22 38.3938 165.51 34.7196 144.575 46.8067C123.64 58.8937 113.967 82.9961 119.237 105.374C96.8592 100.104 72.7569 109.777 60.6699 130.712C48.583 151.647 52.257 177.357 68.0106 194.102C45.9953 200.726 29.9585 221.155 29.9585 245.329C29.9585 269.503 45.9953 289.931 68.0106 296.555C52.257 313.3 48.5829 339.01 60.6699 359.945C72.757 380.881 96.8596 390.554 119.238 385.283C113.967 407.661 123.64 431.763 144.575 443.85C165.511 455.937 191.22 452.263 207.965 436.51C214.59 458.525 235.018 474.562 259.192 474.562C283.366 474.562 303.794 458.525 310.419 436.51C327.163 452.263 352.873 455.937 373.809 443.85C394.744 431.763 404.417 407.661 399.146 385.283C421.524 390.553 445.627 380.88 457.714 359.945C469.801 339.01 466.127 313.3 450.373 296.555C472.388 289.931 488.425 269.503 488.425 245.329C488.425 221.155 472.388 200.726 450.373 194.102C466.127 177.357 469.801 151.647 457.714 130.712C445.627 109.776 421.524 100.103 399.146 105.374C404.417 82.9961 394.744 58.8937 373.808 46.8067C352.873 34.7197 327.163 38.3937 310.419 54.1471Z" fill="white"/>
</svg>
