<svg width="102" height="102" viewBox="0 0 102 102" fill="none" xmlns="http://www.w3.org/2000/svg">
<path fill-rule="evenodd" clip-rule="evenodd" d="M51 91.2956C45.7512 97.607 37.8394 101.625 28.9891 101.625C13.186 101.625 0.374969 88.814 0.374969 73.0109C0.374969 64.1606 4.39298 56.2487 10.7043 51C4.39298 45.7513 0.374969 37.8394 0.374969 28.9891C0.374969 13.186 13.186 0.375 28.9891 0.375C37.8394 0.375 45.7512 4.39301 51 10.7044C56.2487 4.39301 64.1605 0.375 73.0108 0.375C88.814 0.375 101.625 13.186 101.625 28.9891C101.625 37.8394 97.607 45.7513 91.2956 51C97.607 56.2487 101.625 64.1606 101.625 73.0109C101.625 88.814 88.814 101.625 73.0108 101.625C64.1605 101.625 56.2487 97.607 51 91.2956Z" fill="#FFB280"/>
</svg>
