<svg width="128" height="128" viewBox="0 0 128 128" fill="none" xmlns="http://www.w3.org/2000/svg">
<path d="M51.5891 114.671C53.2198 120.091 58.2483 124.038 64.1988 124.038C70.1494 124.038 75.1779 120.091 76.8085 114.671C80.9303 118.549 87.2589 119.454 92.4122 116.478C97.5655 113.503 99.9466 107.57 98.6492 102.062C104.158 103.359 110.09 100.978 113.066 95.8247C116.041 90.6714 115.137 84.3429 111.259 80.2211C116.678 78.5905 120.625 73.5619 120.625 67.6114C120.625 61.6609 116.678 56.6324 111.259 55.0017C115.137 50.88 116.041 44.5514 113.066 39.3981C110.09 34.2448 104.158 31.8637 98.6491 33.1611C99.9465 27.6527 97.5654 21.7198 92.4121 18.7445C87.2588 15.7692 80.9303 16.6736 76.8085 20.5514C75.1778 15.1323 70.1493 11.1848 64.1988 11.1848C58.2483 11.1848 53.2198 15.1323 51.5891 20.5515C47.4674 16.6736 41.1388 15.7692 35.9854 18.7445C30.8321 21.7198 28.4511 27.6527 29.7485 33.1611C24.24 31.8637 18.3071 34.2448 15.3319 39.3981C12.3566 44.5514 13.261 50.88 17.1388 55.0017C11.7197 56.6324 7.77216 61.6609 7.77216 67.6114C7.77216 73.5619 11.7197 78.5905 17.1388 80.2211C13.261 84.3429 12.3566 90.6715 15.3319 95.8248C18.3072 100.978 24.2401 103.359 29.7486 102.062C28.4512 107.57 30.8322 113.503 35.9855 116.478C41.1388 119.454 47.4674 118.549 51.5891 114.671Z" fill="#FFE3DD"/>
</svg>
