<svg width="120" height="120" viewBox="0 0 120 120" fill="none" xmlns="http://www.w3.org/2000/svg">
<path fill-rule="evenodd" clip-rule="evenodd" d="M60 100.296C54.7513 106.607 46.8394 110.625 37.9891 110.625C22.186 110.625 9.375 97.814 9.375 82.0109C9.375 73.1606 13.393 65.2487 19.7044 60C13.393 54.7513 9.375 46.8394 9.375 37.9891C9.375 22.186 22.186 9.375 37.9891 9.375C46.8394 9.375 54.7513 13.393 60 19.7044C65.2487 13.393 73.1606 9.375 82.0109 9.375C97.814 9.375 110.625 22.186 110.625 37.9891C110.625 46.8394 106.607 54.7513 100.296 60C106.607 65.2487 110.625 73.1606 110.625 82.0109C110.625 97.814 97.814 110.625 82.0109 110.625C73.1606 110.625 65.2487 106.607 60 100.296Z" fill="#8C40D9"/>
</svg>
