<svg width="129" height="128" viewBox="0 0 129 128" fill="none" xmlns="http://www.w3.org/2000/svg">
<path d="M59.8131 2.74048C61.8572 -0.913487 67.1155 -0.913496 69.1596 2.74047L74.4122 12.1296C75.8838 14.7602 79.2357 15.6583 81.8255 14.116L91.0689 8.61106C94.6662 6.4687 99.22 9.09783 99.1633 13.2843L99.0176 24.0419C98.9768 27.0558 101.431 29.5096 104.444 29.4688L115.202 29.3231C119.388 29.2664 122.018 33.8201 119.875 37.4174L114.37 46.6609C112.828 49.2506 113.726 52.6025 116.357 54.0741L125.746 59.3267C129.4 61.3709 129.4 66.6291 125.746 68.6733L116.357 73.9259C113.726 75.3975 112.828 78.7494 114.37 81.3391L119.875 90.5826C122.018 94.1799 119.388 98.7336 115.202 98.6769L104.444 98.5312C101.431 98.4904 98.9768 100.944 99.0176 103.958L99.1633 114.716C99.22 118.902 94.6662 121.531 91.0689 119.389L81.8255 113.884C79.2357 112.342 75.8838 113.24 74.4122 115.87L69.1596 125.26C67.1155 128.913 61.8572 128.913 59.8131 125.26L54.5605 115.87C53.0888 113.24 49.7369 112.342 47.1472 113.884L37.9037 119.389C34.3065 121.531 29.7527 118.902 29.8094 114.716L29.9551 103.958C29.9959 100.944 27.5421 98.4904 24.5282 98.5312L13.7707 98.6769C9.58416 98.7336 6.95503 94.1799 9.09738 90.5826L14.6023 81.3391C16.1446 78.7494 15.2465 75.3975 12.616 73.9259L3.22681 68.6733C-0.427159 66.6291 -0.427167 61.3709 3.2268 59.3267L12.6159 54.0741C15.2465 52.6025 16.1446 49.2506 14.6023 46.6609L9.09739 37.4174C6.95503 33.8201 9.58416 29.2664 13.7707 29.3231L24.5282 29.4688C27.5421 29.5096 29.9959 27.0558 29.9551 24.0419L29.8094 13.2843C29.7527 9.09783 34.3065 6.4687 37.9037 8.61105L47.1472 14.116C49.7369 15.6583 53.0888 14.7602 54.5605 12.1296L59.8131 2.74048Z" fill="#FEC540"/>
</svg>
