<svg width="160" height="160" viewBox="0 0 160 160" fill="none" xmlns="http://www.w3.org/2000/svg">
<path fill-rule="evenodd" clip-rule="evenodd" d="M80 133.728C73.0017 142.143 62.4526 147.5 50.6522 147.5C29.5813 147.5 12.5 130.419 12.5 109.348C12.5 97.5474 17.8573 86.9983 26.2725 80C17.8573 73.0017 12.5 62.4526 12.5 50.6522C12.5 29.5813 29.5813 12.5 50.6522 12.5C62.4526 12.5 73.0017 17.8573 80 26.2725C86.9983 17.8573 97.5474 12.5 109.348 12.5C130.419 12.5 147.5 29.5813 147.5 50.6522C147.5 62.4526 142.143 73.0017 133.728 80C142.143 86.9983 147.5 97.5474 147.5 109.348C147.5 130.419 130.419 147.5 109.348 147.5C97.5474 147.5 86.9983 142.143 80 133.728Z" fill="#FED880"/>
</svg>
