<svg width="22" height="19" viewBox="0 0 22 19" fill="none" xmlns="http://www.w3.org/2000/svg">
<path d="M4.0531 0.276228C4.55468 0.0613839 5.12907 -0.0281343 5.77627 0.00767299C6.42347 0.0434803 7.01404 0.222517 7.54798 0.544782C8.0981 0.867048 8.54305 1.27883 8.88283 1.78013C10.517 4.19713 10.1611 7.5093 7.81495 11.7167C6.76325 13.5786 5.76009 15.002 4.80547 15.9867C3.18746 17.6338 2.16812 18.4484 1.74744 18.4305C0.809001 18.4126 0.22652 18.0904 0 17.4637C0.21034 17.2489 0.461131 16.9445 0.752371 16.5506L1.65036 15.2079C3.43017 12.5044 4.40906 10.3202 4.58704 8.65513C3.01757 8.36868 1.99823 7.41978 1.52901 5.80845C1.18923 4.69843 1.27013 3.5884 1.77171 2.47838C2.24093 1.42206 3.00139 0.688012 4.0531 0.276228ZM16.1638 0.303083C16.6654 0.0882394 17.2398 -0.00127883 17.887 0.0345285C18.5342 0.0703358 19.1248 0.249372 19.6587 0.571638C20.2089 0.893903 20.6538 1.30569 20.9936 1.80699C22.6278 4.22398 22.2718 7.53616 19.9257 11.7435C18.874 13.6055 17.8708 15.0288 16.9162 16.0135C15.2982 17.6607 14.2789 18.4753 13.8582 18.4574C12.9198 18.4395 12.3373 18.1172 12.1107 17.4906C12.3211 17.2757 12.5719 16.9714 12.8631 16.5775L13.7611 15.2347C15.5409 12.5313 16.5198 10.347 16.6978 8.68199C15.1283 8.39553 14.109 7.44664 13.6398 5.83531C13.3 4.72528 13.3809 3.61526 13.8825 2.50523C14.3517 1.44892 15.1121 0.714867 16.1638 0.303083Z" fill="black"/>
</svg>