<svg width="64" height="65" viewBox="0 0 64 65" fill="none" xmlns="http://www.w3.org/2000/svg">
<path d="M29.9862 6.96873C30.8335 5.32423 33.1847 5.32423 34.0319 6.96872L37.9194 14.5143C38.4285 15.5024 39.577 15.9782 40.6357 15.6394L48.7201 13.0528C50.482 12.489 52.1446 14.1516 51.5809 15.9135L48.9942 23.9979C48.6555 25.0566 49.1312 26.2051 50.1194 26.7142L57.6649 30.6017C59.3094 31.4489 59.3094 33.8002 57.6649 34.6474L50.1194 38.5349C49.1312 39.044 48.6555 40.1925 48.9942 41.2512L51.5809 49.3356C52.1446 51.0975 50.482 52.7601 48.7201 52.1964L40.6357 49.6097C39.577 49.271 38.4285 49.7467 37.9194 50.7348L34.0319 58.2804C33.1847 59.9249 30.8335 59.9249 29.9862 58.2804L26.0987 50.7348C25.5896 49.7467 24.4411 49.271 23.3824 49.6097L15.2981 52.1964C13.5361 52.7601 11.8735 51.0975 12.4373 49.3356L15.0239 41.2512C15.3627 40.1925 14.887 39.044 13.8988 38.5349L6.35325 34.6474C4.70875 33.8002 4.70875 31.4489 6.35325 30.6017L13.8988 26.7142C14.887 26.2051 15.3627 25.0566 15.0239 23.9979L12.4373 15.9135C11.8735 14.1516 13.5361 12.489 15.2981 13.0528L23.3824 15.6394C24.4411 15.9782 25.5896 15.5024 26.0987 14.5143L29.9862 6.96873Z" fill="#D9BFF2"/>
</svg>
