<svg width="26" height="26" viewBox="0 0 26 26" fill="none" xmlns="http://www.w3.org/2000/svg">
<path fill-rule="evenodd" clip-rule="evenodd" d="M13 26C20.1797 26 26 20.1797 26 13C26 5.8203 20.1797 0 13 0C5.8203 0 0 5.8203 0 13C0 20.1797 5.8203 26 13 26ZM13.4546 9.59036C12.1882 10.1207 9.66611 11.214 5.8776 12.8593C5.27143 13.1083 4.9467 13.3464 4.91423 13.5845C4.8663 13.9872 5.37031 14.1436 6.05021 14.3546C6.13795 14.3818 6.22861 14.41 6.32139 14.4397C6.9925 14.6561 7.88009 14.9051 8.34554 14.9159C8.76769 14.9267 9.23313 14.7536 9.7527 14.3964C13.2922 12.0042 15.1107 10.7919 15.2298 10.7702C15.3164 10.7486 15.4246 10.7269 15.5004 10.7919C15.5762 10.8568 15.5762 10.9867 15.5654 11.0192C15.5137 11.2343 13.4021 13.1947 12.4412 14.0868C12.1936 14.3166 12.0224 14.4755 11.9825 14.5154C11.881 14.6199 11.7776 14.7189 11.6782 14.814C11.0569 15.4087 10.5906 15.855 11.7011 16.5829C12.2059 16.9161 12.6131 17.1939 13.014 17.4675C13.4986 17.7981 13.9741 18.1225 14.602 18.5312C14.7499 18.6284 14.8915 18.7291 15.0297 18.8274C15.5689 19.211 16.0555 19.5571 16.6586 19.5054C17.005 19.473 17.3622 19.1482 17.5462 18.174C17.9792 15.8793 18.8235 10.8893 19.0183 8.83266C19.04 8.65947 19.0183 8.43216 18.9967 8.32392C18.975 8.21567 18.9425 8.07495 18.8126 7.96671C18.6503 7.83682 18.4122 7.81517 18.3039 7.81517C17.8168 7.826 17.0591 8.08578 13.4546 9.59036Z" fill="#FEB200"/>
</svg>
