<svg width="705" height="488" viewBox="0 0 705 488" fill="none" xmlns="http://www.w3.org/2000/svg">
<path fill-rule="evenodd" clip-rule="evenodd" d="M352.494 631.483C316.156 675.175 261.379 703 200.109 703C90.6997 703 2 614.3 2 504.891C2 443.621 29.8128 388.844 73.5169 352.506C29.8128 316.156 2 261.379 2 200.109C2 90.6997 90.6997 2 200.109 2C261.379 2 316.156 29.8128 352.494 73.5169C388.832 29.8128 443.609 2 504.891 2C614.3 2 703 90.6997 703 200.109C703 261.379 675.187 316.156 631.483 352.494C675.175 388.832 703 443.609 703 504.879C703 614.288 614.3 702.988 504.891 702.988C443.621 702.988 388.844 675.175 352.506 631.471L352.494 631.483Z" fill="#FFD9BF" stroke="#FF6600" stroke-width="3" stroke-miterlimit="10"/>
</svg>
