<svg width="485" height="162" viewBox="0 0 485 162" fill="none" xmlns="http://www.w3.org/2000/svg">
<path d="M403.76 17.2326C326.69 -13.4224 148.865 4.03517 72.7954 30.8599C38.1513 43.0768 -25.7314 78.4756 13.1415 111.896C19.9977 117.791 28.3317 122.58 36.9542 126.724C131.849 172.328 264.203 167.684 366.046 140.396C381.235 136.327 396.181 131.496 409.932 124.93C420.217 120.019 430.159 113.932 438.168 106.828C461.613 86.0334 455.489 65.1059 430.264 47.4763C401.019 27.036 361.026 20.7017 323.291 17.2326C290.294 14.1993 257.337 13.6168 224.184 14.8548C162.007 17.1763 90.3525 20.8701 38.2045 48.8157C15.4276 61.0219 -9.04317 87.1046 10.4807 108.215C31.6373 131.09 81.5222 138.497 115.075 143.324C205.591 156.347 348.812 149.889 431.26 115.716C440.151 112.031 449.158 108.597 457.111 103.751C463.396 99.9219 469.413 95.5557 474.633 90.8306C511.625 57.344 429.08 36.2892 399.969 32.6734C308.389 21.2987 176.487 14.5653 92.1468 44.8241" stroke="#FFB280" stroke-width="2" stroke-miterlimit="1.5" stroke-linecap="round" stroke-linejoin="round"/>
</svg>
